<svg width="650" height="650" xmlns="http://www.w3.org/2000/svg">
 <!--! Font Awesome Pro 6.1.0 by @fontawesome - https://fontawesome.com License - https://fontawesome.com/license (Commercial License) Copyright 2022 Fonticons, Inc. -->

 <g>
  <title>Layer 1</title>
  <path id="svg_1" d="m600.33839,470.63362c2.608,8.443 -2.149,17.4 -10.62,19.1l-15.35,4.709c-8.48,2.6 -17.47,-2.139 -20.08,-10.59l-24.05,-76.819l-79.79,-31.8l53.47,62.15c5.08,5.904 6.972,13.89 5.08,21.44l-28.23,110.1c-2.151,8.57 -10.87,13.78 -19.47,11.64l-15.58,-3.873c-8.609,-2.141 -13.84,-10.83 -11.69,-19.4l25.2,-98.02l-38.51,-44.77c0.1529,2.205 0.6627,4.307 0.6627,6.549c0,53.02 -43.15,96 -96.37,96s-96.3727,-43.016 -96.3727,-96.016c0,-2.242 0.5117,-4.34 0.6627,-6.543l-38.51,44.76l25.2,98.02c2.151,8.574 -3.084,17.26 -11.69,19.4l-15.58,3.873c-8.603,2.141 -17.32,-3.072 -19.47,-11.64l-28.23,-110.1c-1.894,-7.543 0,-15.53 5.08,-21.44l53.47,-62.15l-79.79,31.8l-24.01,77.74c-2.608,8.447 -11.6,13.19 -20.08,10.59l-15.35,-4.709c-8.478,-2.6 -13.23,-11.55 -10.63,-19.1l27.4,-88.69c2.143,-6.939 7.323,-12.54 14.09,-15.24l104.7373,-42.571l-104.7,-41.73c-6.77,-2.67 -11.94,-9.17 -14.09,-15.17l-27.39,-88.7c-2.608,-8.443 2.149,-17.4 10.62,-19.1l15.35,-4.709c8.48,-2.6 17.47,2.139 20.08,10.59l24.01,77.74l79.79,31.8l-53.47,-63.121c-5.1,-5.9 -7,-13.9 -5.1,-21.4l28.23,-110.1c2.151,-8.57 10.87,-13.78 19.47,-11.64l15.58,3.873c8.62,2.161 13.82,10.847 10.82,19.427l-24.3,98.04l53.9,62.6l0.1542,-24.44c-1.7542,-36.56 21.0458,-68.19 53.5458,-79.53c5.141,-1.793 10.5,2.215 10.5,7.641l0,23.929l32.12,0l0,-23.91c0,-5.443 5.394,-9.443 10.55,-7.641c31.33,10.941 53.73,40.551 53.73,75.451c0,1.393 -0.1786,2.689 -0.2492,4.064l0.2492,24.436l53.91,-62.66l-25.2,-98.02c-2.151,-8.574 3.084,-17.26 11.69,-19.4l15.58,-3.873c8.603,-2.141 17.32,3.072 19.47,11.64l28.23,110.1c1.894,7.543 0,15.53 -5.08,21.44l-53.47,62.15l79.79,-31.8l24.01,-77.74c2.608,-8.447 11.6,-13.19 20.08,-10.59l15.35,4.709c8.478,2.6 13.23,11.55 10.63,19.1l-27.4,88.69c-2.143,6.939 -7.323,12.54 -14.09,15.24l-104.7,42.614l104.7,41.73c6.754,2.691 11.92,8.283 14.07,15.21l27.43,88.66z"/>
 </g>
</svg>